<svg width="24" height="24" viewBox="0 0 24 24" fill="none" xmlns="http://www.w3.org/2000/svg">
<path d="M4.42644 20.4008L2.74194 1.5H21.2579L19.5712 20.3978L11.9887 22.5L4.42644 20.4008Z" fill="#1572B6"/>
<path d="M12 20.8937L18.1275 19.1949L19.569 3.0459H12V20.8937Z" fill="#33A9DC"/>
<path d="M12 9.89317H15.0675L15.279 7.51942H12V5.20117H17.8125L17.757 5.82292L17.1877 12.2114H12V9.89317V9.89317Z" fill="white"/>
<path d="M12.0142 15.9134L12.0037 15.9164L9.42218 15.2189L9.25718 13.3701H6.92993L7.25468 17.0099L12.0029 18.3284L12.0142 18.3254V15.9134V15.9134Z" fill="#EBEBEB"/>
<path d="M14.8704 12.1133L14.5914 15.2175L12.0061 15.915V18.327L16.7581 17.01L16.7934 16.6185L17.1961 12.1133H14.8704V12.1133Z" fill="white"/>
<path d="M12.0082 5.20117V7.51942H6.40868L6.36218 6.99817L6.25643 5.82292L6.20093 5.20117H12.0082V5.20117Z" fill="#EBEBEB"/>
<path d="M11.9999 9.89307V12.2113H9.45065L9.40415 11.6901L9.29915 10.5148L9.24365 9.89307H11.9999V9.89307Z" fill="#EBEBEB"/>
</svg>
