<svg width="24" height="24" viewBox="0 0 24 24" fill="none" xmlns="http://www.w3.org/2000/svg">
<path d="M7.50195 0H10.08V1.078H8.57995V2.156H10.08V3.234H7.50195V0Z" fill="#00D2DF"/>
<path d="M10.595 0H13.174V0.938H11.674V1.125H13.174V3.281H10.595V2.297H12.095V2.109H10.595V0Z" fill="#00D2DF"/>
<path d="M13.6899 0H16.2669V0.938H14.7669V1.125H16.2669V3.281H13.6899V2.297H15.1899V2.109H13.6899V0Z" fill="#00D2DF"/>
<path fill-rule="evenodd" clip-rule="evenodd" d="M11.991 23.9998L5.047 22.0718L3 4.7168H21L18.954 22.0698L11.991 23.9998ZM7.047 12.5728L7.238 14.7008H14.615L14.368 17.4608L11.994 18.1028H11.992L9.622 17.4628L9.47 15.7658H7.333L7.631 19.1078L11.991 20.3178L16.358 19.1078L16.89 13.1438L16.942 12.5728L17.326 8.2638H6.664L6.858 10.3928H14.994L14.8 12.5728H7.047V12.5728Z" fill="#00D2DF"/>
</svg>
