<svg width="18" height="24" viewBox="0 0 18 24" fill="none" xmlns="http://www.w3.org/2000/svg">
<path d="M16.99 4.70459L15.4449 22.0138L8.49952 23.9393L1.5733 22.0165L0.0297852 4.70459H16.99Z" fill="#E44D26"/>
<path d="M8.51001 22.4676L14.1222 20.9117L15.4426 6.12012H8.51001V22.4676Z" fill="#F16529"/>
<path d="M5.50646 10.3669H8.51011V8.24365H3.18604L3.23683 8.81327L3.75871 14.6643H8.51011V12.5411H5.70052L5.50646 10.3669V10.3669Z" fill="#EBEBEB"/>
<path d="M5.98493 15.7256H3.85352L4.15096 19.0594L8.50027 20.2667L8.51005 20.264V18.055L8.50074 18.0574L6.13611 17.4189L5.98493 15.7256V15.7256Z" fill="#EBEBEB"/>
<path d="M1.60791 0H2.68691V1.06604H3.67397V0H4.75304V3.22823H3.67404V2.14724H2.68698V3.22823H1.60798V0H1.60791Z" fill="black"/>
<path d="M6.17193 1.07056H5.22217V0H8.20149V1.07056H7.25113V3.22823H6.17213V1.07056H6.17206H6.17193Z" fill="black"/>
<path d="M8.67432 0H9.79939L10.4915 1.13432L11.1829 0H12.3084V3.22823H11.2338V1.62814L10.4915 2.77596H10.4729L9.73005 1.62814V3.22823H8.67432V0Z" fill="black"/>
<path d="M12.8453 0H13.9246V2.1612H15.442V3.22823H12.8452V0H12.8453Z" fill="black"/>
<path d="M8.50275 14.6643H11.1173L10.8708 17.4179L8.50269 18.0571V20.266L12.8555 19.0597L12.8874 18.701L13.3864 13.1112L13.4382 12.541H8.50275V14.6643Z" fill="white"/>
<path d="M8.50269 10.3617V10.3669H13.6313L13.6739 9.88968L13.7707 8.81327L13.8214 8.24365H8.50269V10.3618V10.3617Z" fill="white"/>
</svg>
