<svg width="24" height="24" viewBox="0 0 24 24" fill="none" xmlns="http://www.w3.org/2000/svg">
<path d="M5.08008 0H6.16208V1.069H7.15208V0H8.23408V3.236H7.15208V2.153H6.16208V3.236H5.08108V0H5.08008Z" fill="#00D2DF"/>
<path d="M9.6561 1.073H8.7041V0H11.6911V1.073H10.7381V3.236H9.6561V1.073Z" fill="#00D2DF"/>
<path d="M12.165 0H13.293L13.987 1.137L14.68 0H15.808V3.236H14.731V1.632L13.987 2.783H13.968L13.223 1.633V3.236H12.165V0V0Z" fill="#00D2DF"/>
<path d="M16.3459 0H17.4289V2.167H18.9489V3.237H16.3459V0V0Z" fill="#00D2DF"/>
<path fill-rule="evenodd" clip-rule="evenodd" d="M5.046 22.0718L3 4.7168H21L18.953 22.0698L11.99 23.9998L5.046 22.0718ZM9.183 12.5718L8.989 10.3918H17.134L17.324 8.2638H6.664L7.238 14.7008H14.615L14.368 17.4608L11.994 18.1028H11.992L9.622 17.4628L9.47 15.7658H7.332L7.63 19.1078L11.99 20.3178L16.357 19.1078L16.889 13.1438L16.941 12.5728H9.183V12.5718Z" fill="#00D2DF"/>
</svg>
