<svg width="24" height="24" viewBox="0 0 24 24" fill="none" xmlns="http://www.w3.org/2000/svg">
<path d="M0 0H24V24H0V0Z" fill="#F7DF1E"/>
<path d="M6.3104 20.0563L8.14696 18.9448C8.50133 19.5731 8.82365 20.1046 9.5968 20.1046C10.3379 20.1046 10.8052 19.8147 10.8052 18.6871V11.0186H13.0606V18.719C13.0606 21.055 11.6913 22.1183 9.69346 22.1183C7.88924 22.1183 6.84196 21.1839 6.3103 20.0561" fill="black"/>
<path d="M14.2857 19.8143L16.1221 18.751C16.6056 19.5405 17.2339 20.1204 18.3454 20.1204C19.28 20.1204 19.8759 19.6532 19.8759 19.0088C19.8759 18.2355 19.2637 17.9616 18.2326 17.5106L17.6689 17.2688C16.0417 16.5762 14.9623 15.7062 14.9623 13.8697C14.9623 12.178 16.2511 10.8892 18.265 10.8892C19.6988 10.8892 20.7298 11.3887 21.4708 12.6936L19.7147 13.8214C19.328 13.1287 18.9093 12.8548 18.2649 12.8548C17.6043 12.8548 17.1854 13.2737 17.1854 13.8214C17.1854 14.498 17.6043 14.772 18.5709 15.1909L19.1347 15.4325C21.0519 16.2542 22.1312 17.0918 22.1312 18.9766C22.1312 21.0067 20.5363 22.1182 18.3937 22.1182C16.2994 22.1182 14.9461 21.1193 14.2856 19.8143" fill="black"/>
</svg>
