<svg width="32" height="32" viewBox="0 0 32 32" fill="none" xmlns="http://www.w3.org/2000/svg">
<path d="M31.526 7.23998C31.536 7.28198 31.542 7.32898 31.542 7.36998V14.24C31.5423 14.3277 31.5192 14.4138 31.4753 14.4897C31.4314 14.5656 31.3682 14.6285 31.292 14.672L25.526 17.995V24.573C25.5263 24.6607 25.5032 24.7468 25.4593 24.8227C25.4154 24.8986 25.3522 24.9615 25.276 25.005L13.24 31.932C13.2119 31.9476 13.182 31.9597 13.151 31.968L13.12 31.984C13.0363 32.005 12.9487 32.005 12.865 31.984C12.8524 31.9802 12.8403 31.9748 12.829 31.968C12.8001 31.959 12.7723 31.947 12.746 31.932L0.715022 25.005C0.638365 24.9617 0.57445 24.8989 0.529692 24.8231C0.484934 24.7473 0.460907 24.661 0.460022 24.573V3.96398C0.460022 3.92198 0.470022 3.87498 0.481022 3.83398C0.486022 3.81798 0.491022 3.80798 0.497022 3.79198L0.528022 3.71398C0.533022 3.69798 0.549022 3.68798 0.559022 3.67198L0.606022 3.60898C0.622856 3.59859 0.638602 3.58653 0.653022 3.57298C0.674022 3.55698 0.689022 3.54198 0.710022 3.53098L6.72602 0.0669846C6.8021 0.0232953 6.88829 0.000305176 6.97602 0.000305176C7.06375 0.000305176 7.14995 0.0232953 7.22602 0.0669846L13.247 3.53098C13.268 3.54098 13.283 3.55698 13.299 3.57298L13.351 3.60898C13.3664 3.62904 13.3804 3.65008 13.393 3.67198C13.403 3.68198 13.419 3.69798 13.429 3.71398L13.46 3.79198C13.465 3.80798 13.476 3.81798 13.476 3.83398C13.4912 3.87561 13.4983 3.91971 13.497 3.96398V16.834L18.507 13.949V7.37098C18.5089 7.31189 18.5214 7.25362 18.544 7.19898L18.575 7.12098C18.585 7.09998 18.601 7.08998 18.611 7.07398C18.627 7.05298 18.637 7.03198 18.653 7.01698C18.669 7.00198 18.689 6.99098 18.705 6.98098C18.72 6.96434 18.7376 6.95016 18.757 6.93898L24.778 3.47498C24.8532 3.42883 24.9398 3.4044 25.028 3.4044C25.1163 3.4044 25.2028 3.42883 25.278 3.47498L31.294 6.93898C31.315 6.94898 31.33 6.96498 31.351 6.98098C31.367 6.99098 31.382 7.00198 31.398 7.01698C31.414 7.03198 31.429 7.05298 31.445 7.07398C31.455 7.08998 31.471 7.09998 31.476 7.12098C31.492 7.14698 31.497 7.17298 31.507 7.19898C31.517 7.20898 31.523 7.22498 31.528 7.24098L31.526 7.23998ZM30.536 13.948V8.23998L28.432 9.44798L25.526 11.125V16.833L30.536 13.948ZM24.526 24.281V18.567L21.661 20.197L13.494 24.864V30.63L24.526 24.281ZM1.45802 4.83298V24.281L12.489 30.63V24.864L6.72302 21.598C6.70202 21.588 6.68702 21.572 6.67102 21.556C6.65502 21.546 6.63502 21.535 6.62402 21.52H6.61902C6.60302 21.504 6.59302 21.484 6.57702 21.468C6.56702 21.452 6.55102 21.437 6.54102 21.416C6.52938 21.3963 6.52062 21.3751 6.51502 21.353C6.50502 21.332 6.49402 21.317 6.48902 21.296C6.48402 21.275 6.47902 21.249 6.47902 21.223C6.47402 21.202 6.46902 21.187 6.46902 21.166V7.71798L3.56302 6.04098L1.45802 4.83298ZM6.97402 1.07798L1.96402 3.96298L6.97402 6.84798L11.984 3.96298L6.97402 1.07798ZM9.58302 19.089L12.489 17.412V4.83398L10.385 6.04198L7.47402 7.71898V20.297L9.58302 19.089ZM25.026 4.48398L20.01 7.36898L25.026 10.254L30.036 7.36898L25.026 4.48398ZM24.526 11.125L19.51 8.23998V13.948L22.416 15.625L24.525 16.833L24.526 11.125ZM12.99 23.995L24.016 17.703L19.011 14.818L7.99002 21.162L12.99 23.995Z" fill="#00D2DF"/>
</svg>
