<svg width="32" height="32" viewBox="0 0 32 32" fill="none" xmlns="http://www.w3.org/2000/svg">
<path d="M26 29H25.83C6.18 27.87 3.39 11.29 3 6.23C2.96858 5.83658 3.01509 5.44082 3.13688 5.06541C3.25866 4.69 3.45333 4.3423 3.70972 4.04225C3.96611 3.7422 4.27919 3.49569 4.63101 3.31684C4.98284 3.13799 5.3665 3.03032 5.76 3H11.27C11.6706 2.99961 12.062 3.11951 12.3936 3.34416C12.7253 3.56881 12.9818 3.88787 13.13 4.26L14.65 8C14.7964 8.36355 14.8327 8.76208 14.7544 9.14609C14.6762 9.5301 14.4869 9.88267 14.21 10.16L12.08 12.31C12.4127 14.2007 13.3182 15.9437 14.6739 17.303C16.0296 18.6622 17.7701 19.5723 19.66 19.91L21.83 17.76C22.1115 17.4862 22.4674 17.3013 22.8533 17.2283C23.2392 17.1554 23.638 17.1977 24 17.35L27.77 18.86C28.1365 19.0129 28.4492 19.2714 28.6683 19.6027C28.8873 19.9339 29.0028 20.3229 29 20.72V26C29 26.7956 28.6839 27.5587 28.1213 28.1213C27.5587 28.6839 26.7957 29 26 29ZM6 5C5.73479 5 5.48043 5.10536 5.2929 5.29289C5.10536 5.48043 5 5.73478 5 6V6.08C5.46 12 8.41 26 25.94 27C26.0714 27.0081 26.2031 26.9902 26.3275 26.9473C26.4519 26.9045 26.5667 26.8374 26.6652 26.7501C26.7637 26.6628 26.8439 26.5568 26.9014 26.4384C26.9588 26.32 26.9924 26.1914 27 26.06V20.72L23.23 19.21L20.36 22.06L19.88 22C11.18 20.91 10 12.21 10 12.12L9.94 11.64L12.78 8.77L11.28 5H6Z" fill="white"/>
</svg>
