<svg width="32" height="32" viewBox="0 0 32 32" fill="none" xmlns="http://www.w3.org/2000/svg">
<path d="M5.90201 27.201L3.65601 2H28.344L26.095 27.197L15.985 30L5.90201 27.201Z" fill="#1572B6"/>
<path d="M16 27.858L24.17 25.593L26.092 4.06104H16V27.858Z" fill="#33A9DC"/>
<path d="M16 13.1911H20.09L20.372 10.0261H16V6.93506H23.75L23.676 7.76406L22.917 16.2821H16V13.1911V13.1911Z" fill="white"/>
<path d="M16.019 21.2181L16.005 21.2221L12.563 20.2921L12.343 17.8271H9.23999L9.67299 22.6801L16.004 24.4381L16.019 24.4341V21.2181V21.2181Z" fill="#EBEBEB"/>
<path d="M19.827 16.1509L19.455 20.2899L16.008 21.2199V24.4359L22.344 22.6799L22.391 22.1579L22.928 16.1509H19.827V16.1509Z" fill="white"/>
<path d="M16.011 6.93506V10.0261H8.54501L8.48301 9.33106L8.34201 7.76406L8.26801 6.93506H16.011V6.93506ZM16 13.1911V16.2821H12.601L12.539 15.5871L12.399 14.0201L12.325 13.1911H16V13.1911Z" fill="#EBEBEB"/>
</svg>
