<svg width="32" height="32" viewBox="0 0 32 32" fill="none" xmlns="http://www.w3.org/2000/svg">
<path d="M10.648 25.7341C10.4919 25.4464 10.4366 25.1148 10.491 24.7921H3.84698L13.716 7.41706L17.875 14.8271L19.183 13.8511L15.076 6.46706C14.9386 6.21461 14.7412 5.99984 14.5013 5.84167C14.2613 5.68349 13.9861 5.58678 13.7 5.56006C13.4118 5.57194 13.1329 5.66498 12.8953 5.82845C12.6577 5.99192 12.4711 6.21918 12.357 6.48406L2.35698 24.0771C2.20487 24.3237 2.11719 24.6046 2.10199 24.8939C2.08679 25.1833 2.14455 25.4719 2.26998 25.7331C2.42208 25.9754 2.63924 26.1701 2.89669 26.2949C3.15414 26.4198 3.4415 26.4697 3.72598 26.4391H12.1C11.8161 26.4707 11.529 26.4218 11.2715 26.298C11.0141 26.1742 10.7966 25.9805 10.644 25.7391L10.648 25.7341Z" fill="#00C58E"/>
<path d="M29.636 24.112L21.589 9.82302C21.4582 9.57047 21.2659 9.35497 21.0297 9.19644C20.7936 9.03791 20.5213 8.94147 20.238 8.91602C19.9565 8.92796 19.6842 9.01952 19.4527 9.18007C19.2211 9.34062 19.0399 9.56357 18.93 9.82302L17.866 11.523V14.823L20.237 10.752L28.188 24.823H25.163C25.2112 25.1079 25.1685 25.4007 25.041 25.66L25.015 25.712C24.8512 25.9443 24.6326 26.1326 24.3787 26.2603C24.1247 26.388 23.8432 26.4511 23.559 26.444H28.293C28.5773 26.4519 28.8591 26.3891 29.1132 26.2614C29.3673 26.1337 29.5858 25.9449 29.749 25.712C29.8768 25.4596 29.933 25.1771 29.9115 24.895C29.89 24.6129 29.7916 24.3421 29.627 24.112H29.636Z" fill="#108775"/>
<path d="M25.233 25.6998L25.259 25.6478L25.329 25.5088C25.4143 25.2858 25.4355 25.0433 25.39 24.8088C25.3453 24.5529 25.2538 24.3075 25.12 24.0848L18.834 13.1848L17.884 11.5288H17.867L16.908 13.1768L10.631 24.0768C10.5087 24.2991 10.4261 24.5411 10.387 24.7918C10.3278 25.1135 10.38 25.4458 10.535 25.7338C10.693 25.9762 10.9152 26.1701 11.1769 26.2936C11.4386 26.4172 11.7294 26.4658 12.017 26.4338H23.725C24.0178 26.4431 24.3084 26.3804 24.5713 26.2512C24.8343 26.122 25.0615 25.9303 25.233 25.6928V25.6998ZM17.866 14.8358L23.62 24.7998H12.112L17.866 14.8358Z" fill="#2F495E"/>
</svg>
