<svg width="32" height="32" viewBox="0 0 32 32" fill="none" xmlns="http://www.w3.org/2000/svg">
<path d="M7.6 13.7912C7.90835 13.7525 8.22132 13.7752 8.52084 13.8581C8.82035 13.941 9.10047 14.0824 9.345 14.2742C9.50278 14.5173 9.60338 14.7929 9.63924 15.0805C9.67509 15.368 9.64526 15.6599 9.552 15.9342C9.47019 16.6096 9.14357 17.2315 8.634 17.6822C8.01949 18.0781 7.29308 18.2637 6.564 18.2112H5.164L6.024 13.8002L7.6 13.7912ZM2 22.6772H4.3L4.845 19.8772H6.812C7.53666 19.8957 8.25983 19.8023 8.956 19.6002C9.52776 19.4115 10.0504 19.0979 10.486 18.6822C11.2394 18.0048 11.7472 17.0968 11.93 16.1002C12.0743 15.6042 12.0997 15.0812 12.0042 14.5735C11.9086 14.0659 11.6948 13.5878 11.38 13.1782C11.0005 12.8022 10.5435 12.5135 10.0409 12.3323C9.53827 12.1511 9.00216 12.0818 8.47 12.1292H4.057L2 22.6772ZM13.617 9.32324H15.9L15.347 12.1232H17.378C18.3111 12.0255 19.2486 12.2627 20.023 12.7922C20.2792 13.0835 20.4544 13.4371 20.5309 13.8174C20.6075 14.1977 20.5826 14.5915 20.459 14.9592L19.505 19.8682H17.195L18.103 15.2012C18.1662 15.0232 18.1887 14.8332 18.169 14.6453C18.1493 14.4574 18.0878 14.2763 17.989 14.1152C17.658 13.8777 17.2488 13.7755 16.845 13.8292H15.022L13.847 19.8732H11.559L13.617 9.32324ZM25.539 13.7912C25.8473 13.7525 26.1603 13.7752 26.4598 13.8581C26.7594 13.941 27.0395 14.0824 27.284 14.2742C27.4418 14.5173 27.5424 14.7929 27.5782 15.0805C27.6141 15.368 27.5843 15.6599 27.491 15.9342C27.4092 16.6096 27.0826 17.2315 26.573 17.6822C25.9574 18.0789 25.2294 18.2646 24.499 18.2112H23.1L23.958 13.7952L25.539 13.7912ZM19.939 22.6772H22.239L22.784 19.8772H24.752C25.478 19.8961 26.2025 19.8027 26.9 19.6002C27.4718 19.4115 27.9944 19.0979 28.43 18.6822C29.1816 18.004 29.6875 17.0962 29.869 16.1002C30.0133 15.6042 30.0387 15.0812 29.9432 14.5735C29.8476 14.0659 29.6338 13.5878 29.319 13.1782C28.9394 12.8028 28.4824 12.5148 27.98 12.3341C27.4776 12.1535 26.9418 12.0846 26.41 12.1322H21.99L19.939 22.6772Z" fill="#8993BE"/>
</svg>
