<svg width="512" height="349" viewBox="0 0 512 349" fill="none" xmlns="http://www.w3.org/2000/svg">
<g clip-path="url(#clip0_73_19)">
<path d="M152.31 230.297L167.87 280.784C171.366 292.247 172.824 300.249 172.24 304.81C180.75 282.018 186.696 257.18 190.079 230.297H208.789C200.744 274.063 190.133 305.867 176.962 325.707C166.7 340.996 155.458 348.64 143.216 348.64C139.952 348.64 135.928 347.654 131.153 345.696V335.146C133.486 335.488 136.223 335.671 139.371 335.671C145.082 335.671 149.685 334.088 153.187 330.929C157.38 327.08 159.479 322.754 159.479 317.959C159.479 314.685 157.842 307.966 154.583 297.802L132.903 230.297H152.309H152.31ZM33.223 199.266L61.723 286.222H61.899L90.574 199.266H114.002C119.132 242.39 122.162 281.847 123.092 317.612H103.34C102.645 284.179 100.72 252.741 97.572 223.292H97.4L67.322 317.612H52.28L22.384 223.292H22.208C19.99 251.574 18.594 283.012 18.012 317.612H0C1.164 275.532 4.077 236.087 8.739 199.266H33.224H33.223Z" fill="#00758F"/>
<path d="M352.498 197.51C383.155 197.51 398.484 217.096 398.484 256.249C398.484 277.525 393.874 293.596 384.663 304.453C383.003 306.437 381.168 308.151 379.236 309.739L400.931 320.466L400.91 320.465L393.207 333.767L364.954 317.282C360.271 318.669 355.118 319.362 349.503 319.362C334.45 319.362 323.206 314.975 315.772 306.212C307.612 296.518 303.534 281.257 303.534 260.455C303.534 239.299 308.136 223.289 317.35 212.418C325.742 202.474 337.46 197.509 352.498 197.509V197.51ZM258.618 197.682C269.575 197.682 279.538 200.614 288.512 206.457L283.954 216.614C276.275 213.35 268.704 211.711 261.238 211.711C255.18 211.711 250.512 213.169 247.258 216.103C243.986 219.011 241.962 222.753 241.962 227.315C241.962 234.325 246.956 240.404 256.177 245.54C259.198 247.191 262.208 248.861 265.208 250.551L265.896 250.938L266.241 251.132L266.93 251.519L267.274 251.713L267.962 252.101C274.942 256.036 281.51 259.792 281.51 259.792C290.73 266.337 295.326 273.315 295.326 284.808C295.326 294.845 291.648 303.084 284.316 309.531C276.979 315.949 267.122 319.167 254.778 319.167C243.233 319.167 232.044 315.463 221.206 308.117L226.276 297.951C235.603 302.626 244.043 304.961 251.622 304.961C258.73 304.961 264.294 303.374 268.319 300.24C272.336 297.083 274.743 292.68 274.743 287.097C274.743 280.07 269.855 274.063 260.888 269.024C258.081 267.473 255.283 265.907 252.493 264.327L251.806 263.938C250.544 263.225 249.273 262.503 248.028 261.796L247.353 261.412C241.298 257.968 236.063 254.959 236.063 254.959C227.099 248.402 222.604 241.367 222.604 229.775C222.604 220.188 225.956 212.439 232.65 206.544C239.36 200.636 248.017 197.682 258.618 197.682V197.682ZM434.513 199.266V303.054H471.751V317.612H415.627V199.266H434.513ZM492.443 303.099V305.559H488.349V317.599H485.219V305.559H480.966V303.099H492.444H492.443ZM500.003 303.099L503.934 312.983L507.545 303.099H511.982V317.599H509.032V306.564L504.922 317.599H502.795L498.678 306.564H498.52V317.599H495.729V303.099H500.004H500.003ZM350.57 212.064C332.504 212.064 323.466 226.974 323.466 256.774C323.466 273.844 325.861 286.222 330.642 293.937C335.07 301.077 342.005 304.64 351.448 304.64C369.514 304.64 378.551 289.614 378.551 259.576C378.551 242.745 376.156 230.473 371.381 222.754C366.948 215.63 360.016 212.064 350.571 212.064H350.57Z" fill="#F29111"/>
<path d="M303.218 7.33307C309.211 -7.39293 330.166 3.75907 338.298 8.90307C340.291 10.1901 342.577 12.9091 344.862 13.9141C348.427 14.0541 351.989 14.3331 355.56 14.4821C362.258 16.0561 368.532 17.3421 373.81 20.3481C398.338 34.7931 414.305 49.5131 429 73.8271C432.14 78.9771 433.709 84.5501 436.274 90.1231C439.834 98.4301 443.834 107.15 447.966 115.005C449.816 118.729 451.247 122.87 453.816 126.015C454.819 127.453 457.668 127.877 459.371 128.736C464.079 131.173 469.783 133.023 474.211 135.883C482.48 141.039 490.475 147.183 497.743 153.473C500.452 155.901 502.298 159.338 504.879 161.906V163.202C502.588 163.905 500.305 164.625 498.02 165.202C493.029 166.484 488.608 166.194 483.766 167.477C480.774 168.345 477.059 169.49 473.921 169.781L474.211 170.073C476.057 175.348 486.045 179.638 490.613 182.793C496.161 186.797 501.302 191.653 505.44 197.23C506.869 198.653 508.298 199.948 509.72 201.367C510.714 202.805 510.994 204.665 512 205.947V206.381C510.886 205.988 510.085 205.238 509.326 204.454L508.873 203.981C508.42 203.511 507.963 203.049 507.442 202.668C504.294 200.518 501.168 197.946 498.02 195.947C492.608 192.513 486.331 190.52 480.774 187.073C477.632 185.072 474.637 182.793 471.642 180.503C468.927 178.496 465.937 174.642 464.231 171.782C463.226 170.202 463.088 168.345 461.94 167.202C462.145 165.293 463.894 164.726 465.659 164.26L466.065 164.153C466.674 163.995 467.27 163.837 467.79 163.628C475.204 160.48 484.043 159.338 495.457 159.624C495.027 156.758 487.895 153.187 485.618 151.471C481.048 148.177 476.209 144.74 471.361 141.742C468.792 140.172 464.365 139.026 461.519 137.743C457.668 136.169 449.109 134.596 446.975 131.598C443.35 126.872 440.746 121.235 438.218 115.541L437.53 113.987C437.301 113.469 437.071 112.951 436.84 112.434C433.852 105.577 430.14 98.4281 427.145 91.4071C425.579 87.9821 424.86 84.9761 423.145 81.6911C412.738 61.5331 397.335 44.6561 378.66 32.7871C372.523 28.9251 365.68 25.3511 358.126 22.9221C353.845 21.6291 348.707 22.3441 344.146 21.3521H341.144C338.582 20.6301 336.443 17.9141 334.444 16.4821C330.029 13.4841 325.607 11.4711 320.327 9.33207C318.477 8.47407 313.194 6.47607 311.35 8.04907C310.208 8.33607 309.629 8.76707 309.348 9.91307C308.212 11.6231 309.211 14.1991 309.918 15.7761C312.06 20.3461 315.052 23.0621 317.768 26.9241C320.184 30.3491 323.185 34.2111 324.898 37.9351C328.594 45.9401 330.315 54.8091 333.74 62.8131C335.01 65.8231 337.019 69.2481 338.868 71.9631C340.435 74.1181 343.284 75.6761 344.146 78.4041C345.864 81.2641 341.574 90.7011 340.581 93.6981C336.866 105.425 337.586 121.726 341.864 131.891L342.092 132.427L342.32 132.97C343.882 136.693 345.554 140.702 349.707 141.743C349.993 141.459 349.707 141.608 350.274 141.459C351.279 133.591 351.562 126.014 354.274 119.858C355.841 116.009 358.97 113.288 361.115 110.146C362.545 111.002 362.545 113.583 363.397 115.291C365.253 119.721 367.246 124.578 369.534 129.021C374.23 138.171 379.514 147.042 385.501 155.046C387.506 157.905 390.351 161.052 392.917 163.627C394.06 164.624 395.34 165.2 396.199 166.483H396.479V166.915C392.201 165.338 389.489 160.912 386.077 158.328C379.653 153.471 371.96 146.177 367.532 139.178C365.68 135.16 363.678 131.309 361.682 127.311V127.022C360.829 128.164 361.115 129.298 360.688 131.026C358.836 138.171 360.262 146.322 353.845 148.892C346.571 151.902 341.145 144.035 338.868 140.46C331.592 128.594 329.599 108.576 334.73 92.4171C335.87 88.8401 336.025 84.5501 338.015 81.6941C337.585 79.1121 335.595 78.4061 334.444 76.8241C332.448 74.1201 330.739 70.9701 329.176 67.9671C326.174 62.1011 324.038 55.0921 321.759 48.8011C320.757 46.2321 320.47 43.6531 319.471 41.2211C317.767 37.5091 314.626 33.7851 312.203 30.5011C308.922 25.7811 299.366 16.6331 303.218 7.33307V7.33307ZM349.99 35.3481C350.371 35.7301 350.831 36.0641 351.307 36.3931L351.881 36.7871C352.646 37.3171 353.387 37.8751 353.841 38.6351C354.561 39.6411 354.695 40.6341 355.557 41.6421C355.557 45.0791 354.561 47.3641 352.55 48.7881C352.55 48.7881 352.413 48.9381 352.272 49.0781C351.132 46.7871 350.133 44.5081 348.985 42.2191C347.571 40.2211 345.572 38.6361 344.42 36.3531H344.143V36.0661C345.864 35.6411 347.571 35.3481 349.99 35.3481Z" fill="#00758F"/>
</g>
<defs>
<clipPath id="clip0_73_19">
<rect width="512" height="349" fill="white"/>
</clipPath>
</defs>
</svg>
