<svg width="256" height="264" viewBox="0 0 256 264" fill="none" xmlns="http://www.w3.org/2000/svg">
<g clip-path="url(#clip0_73_23)">
<path d="M255.856 59.6201C255.951 59.9711 256 60.3331 256 60.6971V117.265C256 118.743 255.21 120.108 253.927 120.843L206.45 148.18V202.36C206.45 203.085 206.26 203.797 205.898 204.426C205.536 205.054 205.015 205.576 204.388 205.939L105.28 262.992C105.053 263.12 104.806 263.202 104.558 263.291C104.465 263.321 104.378 263.378 104.28 263.404C103.587 263.587 102.859 263.587 102.166 263.404C102.052 263.374 101.949 263.311 101.841 263.27C101.614 263.187 101.377 263.115 101.161 262.992L2.073 205.938C1.44334 205.577 0.920141 205.056 0.556181 204.427C0.19222 203.799 0.000375363 203.086 0 202.36L0 32.6561C0 32.2841 0.052 31.9231 0.144 31.5731C0.175 31.4541 0.247 31.3461 0.289 31.2271C0.366 31.0111 0.439 30.7891 0.552 30.5881C0.629 30.4541 0.742 30.3461 0.835 30.2221C0.954 30.0571 1.062 29.8871 1.201 29.7421C1.32 29.6241 1.475 29.5361 1.609 29.4331C1.759 29.3091 1.892 29.1751 2.062 29.0771H2.067L51.613 0.551103C52.2404 0.190035 52.9516 0 53.6755 0C54.3994 0 55.1106 0.190035 55.738 0.551103L105.284 29.0771H105.294C105.459 29.1811 105.599 29.3091 105.748 29.4281C105.882 29.5311 106.032 29.6241 106.15 29.7381C106.295 29.8871 106.398 30.0581 106.521 30.2221C106.609 30.3461 106.728 30.4541 106.8 30.5881C106.918 30.7941 106.985 31.0111 107.068 31.2281C107.109 31.3461 107.181 31.4541 107.212 31.5781C107.307 31.9291 107.356 32.2921 107.357 32.6561V138.65L148.643 114.877V60.6921C148.643 60.3321 148.695 59.9651 148.788 59.6201C148.824 59.4961 148.891 59.3881 148.932 59.2701C149.015 59.0531 149.087 58.8301 149.2 58.6301C149.277 58.4961 149.39 58.3881 149.479 58.2641C149.602 58.0991 149.705 57.9291 149.849 57.7841C149.969 57.6661 150.118 57.5781 150.252 57.4751C150.407 57.3511 150.541 57.2171 150.706 57.1191H150.711L200.262 28.5931C200.889 28.2315 201.601 28.0412 202.324 28.0412C203.048 28.0412 203.76 28.2315 204.387 28.5931L253.933 57.1191C254.108 57.2221 254.242 57.3511 254.397 57.4691C254.525 57.5731 254.675 57.6661 254.794 57.7791C254.938 57.9291 255.041 58.0991 255.164 58.2641C255.258 58.3881 255.371 58.4961 255.444 58.6301C255.562 58.8301 255.629 59.0531 255.711 59.2701C255.758 59.3881 255.825 59.4961 255.856 59.6201V59.6201ZM247.741 114.878V67.8381L230.402 77.8191L206.449 91.6111V138.651L247.746 114.878H247.741V114.878ZM198.195 199.973V152.9L174.633 166.357L107.352 204.757V252.271L198.195 199.971V199.973ZM8.259 39.7961V199.973L99.092 252.267V204.762L51.64 177.906L51.625 177.896L51.605 177.886C51.445 177.793 51.31 177.659 51.161 177.546C51.031 177.442 50.882 177.36 50.769 177.246L50.759 177.231C50.625 177.102 50.532 176.942 50.419 176.798C50.315 176.658 50.192 176.54 50.109 176.396L50.104 176.38C50.011 176.226 49.954 176.04 49.887 175.865C49.82 175.71 49.733 175.565 49.691 175.401V175.396C49.64 175.2 49.63 174.993 49.609 174.792C49.589 174.638 49.547 174.483 49.547 174.328V63.5701L25.598 49.7721L8.259 39.8021V39.7961ZM53.681 8.8931L12.399 32.6561L53.671 56.4181L94.947 32.6501L53.671 8.8931H53.681ZM75.149 157.191L99.097 143.405V39.7961L81.76 49.7781L57.805 63.5691V167.177L75.149 157.191V157.191ZM202.324 36.9351L161.048 60.6971L202.324 84.4601L243.595 60.6921L202.325 36.9351H202.324ZM198.194 91.6111L174.241 77.8191L156.903 67.8381V114.878L180.851 128.665L198.195 138.651V91.6111H198.194ZM103.217 197.617L163.76 163.053L194.024 145.781L152.778 122.034L105.289 149.374L62.007 174.292L103.217 197.617Z" fill="#FF2D20"/>
</g>
<defs>
<clipPath id="clip0_73_23">
<rect width="256" height="264" fill="white"/>
</clipPath>
</defs>
</svg>
